<svg width="61" height="61" viewBox="0 0 61 61" fill="none" xmlns="http://www.w3.org/2000/svg">
<path d="M55.5459 13C55.5459 17.1421 52.188 20.5 48.0459 20.5C43.9038 20.5 40.5459 17.1421 40.5459 13C40.5459 8.85786 43.9038 5.5 48.0459 5.5C52.188 5.5 55.5459 8.85786 55.5459 13Z" fill="#A943D5"/>
<path fill-rule="evenodd" clip-rule="evenodd" d="M39.5759 5.59565C37.0209 5.5 34.0428 5.5 30.5459 5.5C18.7608 5.5 12.8682 5.5 9.20706 9.16117C5.5459 12.8223 5.5459 18.7149 5.5459 30.5C5.5459 42.2851 5.5459 48.1777 9.20706 51.8388C12.8682 55.5 18.7608 55.5 30.5459 55.5C42.331 55.5 48.2236 55.5 51.8847 51.8388C55.5459 48.1777 55.5459 42.2851 55.5459 30.5C55.5459 27.0031 55.5459 24.025 55.4502 21.47C53.4717 23.2011 50.8813 24.25 48.0459 24.25C41.8327 24.25 36.7959 19.2132 36.7959 13C36.7959 10.1646 37.8448 7.57418 39.5759 5.59565ZM44.2462 24.0596C45.0418 24.7225 45.1492 25.9048 44.4863 26.7003L39.9142 32.1869C39.093 33.1725 38.3528 34.061 37.6613 34.6854C36.9089 35.3648 35.9613 35.9699 34.7126 35.9699C33.4638 35.9699 32.5162 35.3648 31.7638 34.6854C31.0724 34.061 30.3321 33.1725 29.5109 32.1869L28.7799 31.3097C27.8529 30.1973 27.2837 29.5212 26.8147 29.0978C26.5972 28.9014 26.4682 28.8231 26.4064 28.7932C26.3938 28.7871 26.3849 28.7835 26.3792 28.7813L26.369 28.7855L26.3521 28.7932C26.2902 28.8231 26.1612 28.9014 25.9437 29.0978C25.4748 29.5212 24.9055 30.1973 23.9785 31.3097L19.4863 36.7003C18.8234 37.4959 17.6411 37.6033 16.8456 36.9404C16.05 36.2775 15.9426 35.0952 16.6055 34.2997L21.1776 28.8131C21.9987 27.8275 22.739 26.939 23.4305 26.3146C24.1829 25.6352 25.1305 25.0301 26.3792 25.0301C27.628 25.0301 28.5756 25.6352 29.328 26.3146C30.0194 26.939 30.7597 27.8275 31.5809 28.8131L32.3119 29.6903C33.2389 30.8027 33.8081 31.4788 34.2771 31.9022C34.4946 32.0986 34.6236 32.1769 34.6854 32.2068L34.6934 32.2106C34.7019 32.2145 34.7126 32.2187 34.7126 32.2187C34.7182 32.2165 34.7272 32.2129 34.7397 32.2068C34.8016 32.1769 34.9306 32.0986 35.1481 31.9022C35.617 31.4788 36.1863 30.8027 37.1133 29.6903L41.6055 24.2997C42.2684 23.5041 43.4507 23.3967 44.2462 24.0596Z" fill="#A943D5"/>
</svg>
