<svg width="38" height="50" viewBox="0 0 38 50" fill="none" xmlns="http://www.w3.org/2000/svg">
<path fill-rule="evenodd" clip-rule="evenodd" d="M18.75 0C8.39466 0 0 8.58988 0 19.186C0 24.8669 2.41506 29.973 6.24647 33.4835C7.5235 34.6535 8.46956 35.5204 9.14003 36.1494C9.47526 36.4639 9.73156 36.7095 9.92074 36.8981C10.015 36.9921 10.0872 37.0664 10.1409 37.1241C10.1675 37.1526 10.1875 37.1748 10.202 37.1914C10.2162 37.2077 10.223 37.2161 10.223 37.2161C10.8143 37.9628 10.9422 38.1554 11.0185 38.3299C11.0947 38.5044 11.1495 38.7305 11.2987 39.6793C11.3576 40.0539 11.3636 40.6955 11.3636 42.4419L11.3636 42.5168C11.3636 43.5396 11.3636 44.4218 11.4277 45.1457C11.4955 45.9112 11.6456 46.6693 12.0487 47.3837C12.4976 48.1792 13.1431 48.8397 13.9205 49.299C14.6187 49.7115 15.3595 49.8651 16.1076 49.9345C16.8151 50.0001 17.6772 50 18.6767 50H18.8233C19.8228 50 20.6849 50.0001 21.3924 49.9345C22.1405 49.8651 22.8813 49.7115 23.5795 49.299C24.3569 48.8397 25.0025 48.1792 25.4513 47.3837C25.8544 46.6693 26.0045 45.9112 26.0723 45.1457C26.1364 44.4217 26.1364 43.5395 26.1364 42.5168V42.4419C26.1364 40.6955 26.1424 40.0539 26.2013 39.6793C26.3505 38.7304 26.4053 38.5044 26.4815 38.3299C26.5578 38.1554 26.6857 37.9628 27.277 37.2161C27.277 37.2161 27.2831 37.2084 27.298 37.1914C27.3125 37.1748 27.3325 37.1526 27.3591 37.1241C27.4128 37.0664 27.485 36.9921 27.5793 36.8981C27.7684 36.7095 28.0247 36.4639 28.36 36.1494C29.0304 35.5204 29.9765 34.6535 31.2535 33.4835C35.0849 29.973 37.5 24.8669 37.5 19.186C37.5 8.58988 29.1053 0 18.75 0ZM22.7127 44.186H14.7873C14.7948 44.4284 14.806 44.6402 14.8229 44.8308C14.8692 45.3544 14.9475 45.5445 15.0011 45.6395C15.1507 45.9047 15.3659 46.1249 15.625 46.278C15.7179 46.3328 15.9036 46.4129 16.4153 46.4603C16.9505 46.51 17.6566 46.5116 18.75 46.5116C19.8434 46.5116 20.5495 46.51 21.0847 46.4603C21.5964 46.4129 21.7821 46.3328 21.875 46.278C22.1341 46.1249 22.3493 45.9047 22.4989 45.6395C22.5525 45.5445 22.6308 45.3544 22.6771 44.8308C22.694 44.6402 22.7052 44.4284 22.7127 44.186ZM21.5261 15.4412C22.2922 16.0011 22.4696 17.0904 21.9224 17.8743L18.9775 22.093H22.4835C23.122 22.093 23.7069 22.4582 23.9991 23.0391C24.2913 23.62 24.2416 24.3193 23.8705 24.851L19.0004 31.8277C18.4532 32.6116 17.3886 32.7932 16.6226 32.2333C15.8565 31.6734 15.6791 30.584 16.2263 29.8002L19.1712 25.5814H15.6653C15.0268 25.5814 14.4418 25.2163 14.1496 24.6353C13.8575 24.0544 13.9071 23.3551 14.2782 22.8234L19.1484 15.8467C19.6955 15.0628 20.7601 14.8813 21.5261 15.4412Z" fill="#D726B3"/>
</svg>
