<svg width="56" height="46" viewBox="0 0 56 46" fill="none" xmlns="http://www.w3.org/2000/svg">
<path fill-rule="evenodd" clip-rule="evenodd" d="M0.5 43.6C0.5 42.5507 1.35899 41.7 2.4186 41.7H53.5814C54.641 41.7 55.5 42.5507 55.5 43.6C55.5 44.6493 54.641 45.5 53.5814 45.5H2.4186C1.35899 45.5 0.5 44.6493 0.5 43.6Z" fill="#D726B3"/>
<path fill-rule="evenodd" clip-rule="evenodd" d="M7.22453 2.72599C4.97674 4.95198 4.97674 8.53465 4.97674 15.7V28.3667C4.97674 33.1436 4.97674 35.532 6.47527 37.016C7.97379 38.5 10.3856 38.5 15.2093 38.5H40.7907C45.6144 38.5 48.0262 38.5 49.5247 37.016C51.0233 35.532 51.0233 33.1436 51.0233 28.3667V15.7C51.0233 8.53465 51.0233 4.95198 48.7755 2.72599C46.5277 0.5 42.9099 0.5 35.6744 0.5H20.3256C13.0901 0.5 9.47231 0.5 7.22453 2.72599ZM18.407 30.9C18.407 29.8507 19.266 29 20.3256 29H35.6744C36.734 29 37.593 29.8507 37.593 30.9C37.593 31.9493 36.734 32.8 35.6744 32.8H20.3256C19.266 32.8 18.407 31.9493 18.407 30.9Z" fill="#D726B3"/>
</svg>
