<svg width="40" height="40" viewBox="0 0 40 40" fill="none" xmlns="http://www.w3.org/2000/svg">
<path d="M36.6665 13.6039L36.6665 13.7248C36.6665 15.1593 36.6664 15.8766 36.3211 16.4635C35.9758 17.0503 35.3488 17.3987 34.0947 18.0954L32.7725 18.83C33.6837 15.7497 33.9876 12.4402 34.1 9.60994C34.1048 9.48858 34.1103 9.36574 34.1157 9.24159L34.1196 9.15463C35.205 9.53158 35.8145 9.81261 36.1947 10.3401C36.6666 10.9949 36.6665 11.8645 36.6665 13.6039Z" fill="white"/>
<path d="M3.33325 13.6039L3.33326 13.7248C3.3333 15.1593 3.33332 15.8766 3.67863 16.4635C4.02394 17.0503 4.65097 17.3987 5.905 18.0954L7.22793 18.8304C6.31671 15.75 6.01271 12.4403 5.90034 9.60994C5.89552 9.48858 5.89009 9.36574 5.8846 9.24159L5.88076 9.15442C4.79493 9.53148 4.18535 9.81251 3.80508 10.3401C3.33318 10.9949 3.33321 11.8645 3.33325 13.6039Z" fill="white"/>
<path fill-rule="evenodd" clip-rule="evenodd" d="M27.2951 3.91122C25.4217 3.59513 22.9727 3.33331 20.0002 3.33331C17.0276 3.33331 14.5787 3.59513 12.7052 3.91122C10.8073 4.23143 9.85839 4.39154 9.06553 5.36803C8.27267 6.34453 8.31457 7.39994 8.39837 9.51076C8.68606 16.7573 10.2498 25.8084 18.7499 26.6094V32.5H16.3663C15.5718 32.5 14.8878 33.0607 14.732 33.8398L14.4166 35.4166H9.99992C9.30956 35.4166 8.74992 35.9763 8.74992 36.6666C8.74992 37.357 9.30956 37.9166 9.99992 37.9166H29.9999C30.6903 37.9166 31.2499 37.357 31.2499 36.6666C31.2499 35.9763 30.6903 35.4166 29.9999 35.4166H25.5833L25.2679 33.8398C25.1121 33.0607 24.428 32.5 23.6336 32.5H21.2499V26.6095C29.7504 25.8088 31.3143 16.7574 31.602 9.51076C31.6858 7.39994 31.7277 6.34453 30.9348 5.36803C30.142 4.39154 29.193 4.23143 27.2951 3.91122Z" fill="white"/>
</svg>
