<svg width="40" height="40" viewBox="0 0 40 40" fill="none" xmlns="http://www.w3.org/2000/svg">
<ellipse cx="15.0016" cy="9.99998" rx="6.66667" ry="6.66667" fill="white"/>
<ellipse cx="15.0016" cy="28.3349" rx="11.6667" ry="6.66667" fill="white"/>
<path d="M34.9995 28.3341C34.9995 31.0955 31.6069 33.334 27.4647 33.334C28.6851 32.0002 29.5242 30.3259 29.5242 28.3364C29.5242 26.3447 28.6831 24.6688 27.4605 23.3342C31.6026 23.3342 34.9995 25.5727 34.9995 28.3341Z" fill="white"/>
<path d="M29.9995 10.0012C29.9995 12.7626 27.7609 15.0012 24.9995 15.0012C24.3973 15.0012 23.82 14.8948 23.2854 14.6997C24.0739 13.3129 24.5242 11.7087 24.5242 9.99936C24.5242 8.29128 24.0745 6.68823 23.2871 5.30211C23.8213 5.10743 24.398 5.00122 24.9995 5.00122C27.7609 5.00122 29.9995 7.2398 29.9995 10.0012Z" fill="white"/>
</svg>
