<svg width="50" height="44" viewBox="0 0 50 44" fill="none" xmlns="http://www.w3.org/2000/svg">
<path fill-rule="evenodd" clip-rule="evenodd" d="M30.6254 4.19885L30.6254 11.843C30.625 12.1211 30.6244 12.5175 30.6776 12.8578C30.7426 13.2738 30.9566 14.077 31.7882 14.5653C32.5892 15.0356 33.3726 14.8609 33.7449 14.7452C34.0695 14.6442 34.4255 14.4747 34.6909 14.3483L37.5004 13.0136L40.31 14.3482C40.5754 14.4747 40.9314 14.6442 41.256 14.7452C41.6283 14.8609 42.4117 15.0356 43.2127 14.5653C44.0443 14.077 44.2583 13.2738 44.3233 12.8578C44.3765 12.5175 44.3759 12.1211 44.3755 11.8431L44.3754 0.578261C44.6574 0.565003 44.9344 0.553792 45.2049 0.544367C47.8844 0.451032 50 2.65186 50 5.33298V33.359C50 36.1364 47.7349 38.3837 44.9629 38.557C42.5393 38.7086 39.6918 39.005 37.5 39.5834C34.7964 40.2968 31.5677 41.8412 29.069 43.1731C28.3714 43.545 27.6326 43.8144 26.8754 43.9813V5.93467C27.6773 5.73826 28.456 5.42854 29.1846 5.00688C29.6453 4.74024 30.1284 4.46829 30.6254 4.19885ZM44.3195 25.0452C44.5706 26.0499 43.9598 27.0679 42.9552 27.319L32.9552 29.819C31.9506 30.0702 30.9326 29.4594 30.6814 28.4548C30.4303 27.4501 31.0411 26.4321 32.0457 26.181L42.0457 23.681C43.0503 23.4298 44.0683 24.0406 44.3195 25.0452Z" fill="#D726B3"/>
<path fill-rule="evenodd" clip-rule="evenodd" d="M23.1254 6.03492C22.2899 5.87621 21.4734 5.59462 20.7056 5.18865C18.2403 3.88502 15.123 2.41077 12.5 1.71861C10.2837 1.13378 7.39693 0.837241 4.95601 0.687221C2.21575 0.518805 0 2.74908 0 5.4945V33.359C0 36.1364 2.26511 38.3837 5.03715 38.557C7.4607 38.7086 10.3082 39.005 12.5 39.5834C15.2036 40.2968 18.4323 41.8412 20.931 43.1731C21.6289 43.5451 22.3679 43.8146 23.1254 43.9815V6.03492ZM5.68143 15.0452C5.93258 14.0406 6.95058 13.4298 7.9552 13.681L17.9552 16.181C18.9598 16.4321 19.5706 17.4501 19.3195 18.4548C19.0683 19.4594 18.0503 20.0702 17.0457 19.819L7.04569 17.319C6.04107 17.0679 5.43027 16.0499 5.68143 15.0452ZM7.9552 23.681C6.95058 23.4298 5.93258 24.0406 5.68143 25.0452C5.43027 26.0499 6.04107 27.0679 7.04569 27.319L17.0457 29.819C18.0503 30.0702 19.0683 29.4594 19.3195 28.4548C19.5706 27.4501 18.9598 26.4321 17.9552 26.181L7.9552 23.681Z" fill="#D726B3"/>
<path d="M40.6254 0.877518C39.0753 1.06078 37.5515 1.32897 36.25 1.71861C35.6462 1.89938 35.0159 2.12852 34.3754 2.39099V2.87505V10.3465L36.2487 9.45664L36.2708 9.44555C36.3933 9.38291 36.9096 9.11892 37.5004 9.11892C37.6193 9.11892 37.7351 9.1296 37.8453 9.14717C38.2831 9.21696 38.6323 9.3955 38.7301 9.44555L38.7521 9.45664L40.6254 10.3465V2.11663V0.877518Z" fill="#D726B3"/>
</svg>
