<svg width="60" height="60" viewBox="0 0 60 60" fill="none" xmlns="http://www.w3.org/2000/svg">
<ellipse cx="22.5024" cy="15" rx="10" ry="10" fill="#D726B3"/>
<ellipse cx="22.5024" cy="42.5024" rx="17.5" ry="10" fill="#D726B3"/>
<path d="M52.4991 42.5011C52.4991 46.6433 47.4102 50.001 41.197 50.001C43.0275 48.0003 44.2862 45.4888 44.2862 42.5046C44.2862 39.517 43.0246 37.0032 41.1906 35.0012C47.4038 35.0012 52.4991 38.359 52.4991 42.5011Z" fill="#D726B3"/>
<path d="M44.9991 15.0018C44.9991 19.144 41.6412 22.5018 37.4991 22.5018C36.5959 22.5018 35.7299 22.3422 34.928 22.0495C36.1107 19.9693 36.7862 17.5631 36.7862 14.999C36.7862 12.4369 36.1117 10.0323 34.9306 7.95317C35.7318 7.66114 36.5968 7.50183 37.4991 7.50183C41.6412 7.50183 44.9991 10.8597 44.9991 15.0018Z" fill="#D726B3"/>
</svg>
