<svg width="15" height="15" viewBox="0 0 15 15" fill="none" xmlns="http://www.w3.org/2000/svg">
<path d="M4.84375 1.5625C4.84375 1.30362 4.63388 1.09375 4.375 1.09375C4.11612 1.09375 3.90625 1.30362 3.90625 1.5625V2.54954C3.00667 2.62157 2.41611 2.79836 1.98223 3.23223C1.54836 3.66611 1.37157 4.25667 1.29954 5.15625H13.7005C13.6284 4.25667 13.4516 3.66611 13.0178 3.23223C12.5839 2.79836 11.9933 2.62157 11.0938 2.54954V1.5625C11.0938 1.30362 10.8839 1.09375 10.625 1.09375C10.3661 1.09375 10.1563 1.30362 10.1563 1.5625V2.50806C9.74046 2.5 9.2744 2.5 8.75 2.5H6.25C5.7256 2.5 5.25954 2.5 4.84375 2.50806V1.5625Z" fill="white"/>
<path fill-rule="evenodd" clip-rule="evenodd" d="M13.75 7.5V8.75C13.75 11.107 13.75 12.2855 13.0178 13.0178C12.2855 13.75 11.107 13.75 8.75 13.75H6.25C3.89298 13.75 2.71447 13.75 1.98223 13.0178C1.25 12.2855 1.25 11.107 1.25 8.75V7.5C1.25 6.9756 1.25 6.50954 1.25806 6.09375H13.7419C13.75 6.50954 13.75 6.9756 13.75 7.5ZM10.3125 11.25C10.8303 11.25 11.25 10.8303 11.25 10.3125C11.25 9.79473 10.8303 9.375 10.3125 9.375C9.79473 9.375 9.375 9.79473 9.375 10.3125C9.375 10.8303 9.79473 11.25 10.3125 11.25Z" fill="white"/>
</svg>
