<svg width="32" height="32" viewBox="0 0 32 32" fill="none" xmlns="http://www.w3.org/2000/svg">
<path d="M13.3738 11.9596C12.9833 11.569 12.3501 11.569 11.9596 11.9596C11.5691 12.3501 11.5691 12.9832 11.9596 13.3738L14.5858 16L11.9596 18.6262C11.5691 19.0168 11.5691 19.6499 11.9596 20.0404C12.3502 20.431 12.9833 20.431 13.3738 20.0404L16.0001 17.4142L18.6262 20.0404C19.0168 20.4309 19.6499 20.4309 20.0405 20.0404C20.431 19.6499 20.431 19.0167 20.0405 18.6262L17.4143 16L20.0405 13.3738C20.431 12.9833 20.431 12.3501 20.0405 11.9596C19.65 11.5691 19.0168 11.5691 18.6263 11.9596L16.0001 14.5858L13.3738 11.9596Z" fill="white"/>
<path fill-rule="evenodd" clip-rule="evenodd" d="M16.0001 1.66669C8.084 1.66669 1.66675 8.08394 1.66675 16C1.66675 23.9161 8.084 30.3334 16.0001 30.3334C23.9162 30.3334 30.3334 23.9161 30.3334 16C30.3334 8.08394 23.9162 1.66669 16.0001 1.66669ZM3.66675 16C3.66675 9.18851 9.18857 3.66669 16.0001 3.66669C22.8116 3.66669 28.3334 9.18851 28.3334 16C28.3334 22.8115 22.8116 28.3334 16.0001 28.3334C9.18857 28.3334 3.66675 22.8115 3.66675 16Z" fill="white"/>
</svg>
