<svg width="40" height="40" viewBox="0 0 40 40" fill="none" xmlns="http://www.w3.org/2000/svg">
<path d="M36.6666 14.1667C36.6666 8.18359 31.8163 3.33334 25.8333 3.33334C22.3618 3.33334 19.2717 4.97051 17.2891 7.51202C25.7451 7.83895 32.4999 14.7973 32.4999 23.3333C32.4999 23.5172 32.4968 23.7003 32.4906 23.8827L33.0443 24.0308C34.6549 24.4618 36.1283 22.9883 35.6974 21.3778L35.4851 20.5844C35.3136 19.9435 35.4167 19.2664 35.6924 18.6629C36.318 17.2933 36.6666 15.7707 36.6666 14.1667Z" fill="white"/>
<path fill-rule="evenodd" clip-rule="evenodd" d="M29.9999 23.3333C29.9999 30.6971 24.0304 36.6667 16.6666 36.6667C14.6074 36.6667 12.6573 36.1999 10.9162 35.3663C10.3178 35.0799 9.63981 34.9793 8.9989 35.1508L6.9555 35.6975C5.34494 36.1284 3.87151 34.655 4.30244 33.0444L4.84918 31.001C5.02066 30.3601 4.92007 29.6822 4.63359 29.0838C3.80004 27.3427 3.33325 25.3925 3.33325 23.3333C3.33325 15.9695 9.30279 10 16.6666 10C24.0304 10 29.9999 15.9695 29.9999 23.3333ZM10.8333 25C11.7537 25 12.4999 24.2538 12.4999 23.3333C12.4999 22.4129 11.7537 21.6667 10.8333 21.6667C9.91278 21.6667 9.16659 22.4129 9.16659 23.3333C9.16659 24.2538 9.91278 25 10.8333 25ZM16.6666 25C17.5871 25 18.3333 24.2538 18.3333 23.3333C18.3333 22.4129 17.5871 21.6667 16.6666 21.6667C15.7461 21.6667 14.9999 22.4129 14.9999 23.3333C14.9999 24.2538 15.7461 25 16.6666 25ZM22.4999 25C23.4204 25 24.1666 24.2538 24.1666 23.3333C24.1666 22.4129 23.4204 21.6667 22.4999 21.6667C21.5794 21.6667 20.8333 22.4129 20.8333 23.3333C20.8333 24.2538 21.5794 25 22.4999 25Z" fill="white"/>
</svg>
