<svg width="21" height="16" viewBox="0 0 21 16" fill="none" xmlns="http://www.w3.org/2000/svg">
<path fill-rule="evenodd" clip-rule="evenodd" d="M1.92157 1.17157C0.75 2.34315 0.75 4.22876 0.75 8C0.75 11.7712 0.75 13.6569 1.92157 14.8284C3.09315 16 4.97876 16 8.75 16H12.75C16.5212 16 18.4069 16 19.5784 14.8284C20.75 13.6569 20.75 11.7712 20.75 8C20.75 4.22876 20.75 2.34315 19.5784 1.17157C18.4069 0 16.5212 0 12.75 0H8.75C4.97876 0 3.09315 0 1.92157 1.17157ZM17.3262 3.51986C17.5913 3.83807 17.5483 4.31099 17.2301 4.57617L15.0337 6.40657C14.1473 7.14523 13.4289 7.74392 12.7948 8.15172C12.1343 8.57653 11.4911 8.84488 10.75 8.84488C10.0089 8.84488 9.36567 8.57653 8.70518 8.15172C8.07112 7.74392 7.35271 7.14523 6.46636 6.40658L4.26986 4.57617C3.95165 4.31099 3.90866 3.83807 4.17383 3.51986C4.43901 3.20165 4.91193 3.15866 5.23014 3.42383L7.38903 5.22291C8.32199 6.00038 8.96973 6.53841 9.51658 6.89013C10.0459 7.23059 10.4049 7.34487 10.75 7.34487C11.0951 7.34487 11.4541 7.23059 11.9834 6.89013C12.5303 6.53841 13.178 6.00038 14.111 5.22291L16.2699 3.42383C16.5881 3.15866 17.061 3.20165 17.3262 3.51986Z" fill="white"/>
</svg>
