<svg width="120" height="120" viewBox="0 0 120 120" fill="none" xmlns="http://www.w3.org/2000/svg">
<path fill-rule="evenodd" clip-rule="evenodd" d="M60 80C79.33 80 95 64.33 95 45C95 25.67 79.33 10 60 10C40.67 10 25 25.67 25 45C25 64.33 40.67 80 60 80ZM60 30C58.5797 30 57.6297 31.7042 55.7297 35.1126L55.2382 35.9944C54.6983 36.9629 54.4283 37.4472 54.0074 37.7667C53.5865 38.0862 53.0623 38.2049 52.0138 38.4421L51.0593 38.658C47.3698 39.4928 45.525 39.9102 45.0861 41.3216C44.6472 42.733 45.9049 44.2036 48.4201 47.1449L49.0709 47.9058C49.7856 48.7416 50.143 49.1596 50.3038 49.6766C50.4646 50.1936 50.4105 50.7512 50.3025 51.8663L50.2041 52.8816C49.8238 56.8059 49.6337 58.7681 50.7827 59.6403C51.9318 60.5126 53.659 59.7173 57.1135 58.1268L58.0072 57.7153C58.9889 57.2633 59.4797 57.0373 60 57.0373C60.5203 57.0373 61.0111 57.2633 61.9928 57.7153L62.8865 58.1268C66.341 59.7173 68.0682 60.5126 69.2173 59.6403C70.3663 58.7681 70.1762 56.8059 69.7959 52.8816L69.6975 51.8663C69.5895 50.7512 69.5354 50.1936 69.6962 49.6766C69.857 49.1596 70.2143 48.7417 70.9291 47.9059L71.5799 47.1449C74.0951 44.2036 75.3528 42.733 74.9139 41.3216C74.475 39.9102 72.6302 39.4928 68.9407 38.658L67.9862 38.4421C66.9377 38.2049 66.4135 38.0862 65.9926 37.7667C65.5717 37.4472 65.3017 36.9629 64.7618 35.9943L64.2703 35.1126C62.3703 31.7042 61.4203 30 60 30Z" fill="white"/>
<path d="M22.4759 64.9727L14.9603 72.7543C12.2597 75.5505 10.9094 76.9486 10.4421 78.1326C9.37738 80.8307 10.2886 83.8235 12.6069 85.2427C13.6243 85.8656 15.4593 86.0596 19.1294 86.4478C21.2015 86.667 22.2378 86.7766 23.1055 87.1092C25.0483 87.8538 26.5596 89.4186 27.2788 91.4302C27.6 92.3287 27.7058 93.4015 27.9175 95.547C28.2924 99.3471 28.4799 101.247 29.0814 102.301C30.4521 104.701 33.3426 105.644 35.9483 104.542C37.0918 104.058 38.4421 102.66 41.1427 99.8638L53.5529 87.0142C40.0653 84.9617 28.6612 76.5694 22.4759 64.9727Z" fill="white"/>
<path d="M66.4471 87.0142L78.8573 99.8638C81.5579 102.66 82.9082 104.058 84.0517 104.542C86.6574 105.644 89.5479 104.701 90.9186 102.301C91.5201 101.247 91.7076 99.3471 92.0825 95.547C92.2942 93.4016 92.4 92.3287 92.7212 91.4302C93.4404 89.4186 94.9517 87.8538 96.8945 87.1092C97.7623 86.7765 98.7984 86.667 100.871 86.4478C104.541 86.0596 106.376 85.8656 107.393 85.2427C109.711 83.8235 110.623 80.8307 109.558 78.1326C109.091 76.9486 107.74 75.5505 105.04 72.7543L97.5241 64.9727C91.3387 76.5694 79.9347 84.9617 66.4471 87.0142Z" fill="white"/>
</svg>
