<svg width="25" height="24" viewBox="0 0 25 24" fill="none" xmlns="http://www.w3.org/2000/svg">
<path d="M12.5 22.0003C18.0228 22.0003 22.5 19.9856 22.5 17.5003C22.5 16.2337 21.337 15.0892 19.4654 14.2715C18.3233 16.3673 16.5817 18.1738 14.3695 19.1192C13.1804 19.6274 11.8196 19.6274 10.6305 19.1192C8.41828 18.1738 6.67666 16.3673 5.53458 14.2715C3.66295 15.0892 2.5 16.2337 2.5 17.5003C2.5 19.9856 6.97715 22.0003 12.5 22.0003Z" fill="white"/>
<path fill-rule="evenodd" clip-rule="evenodd" d="M5.5 8.51464C5.5 4.9167 8.63401 2 12.5 2C16.366 2 19.5 4.9167 19.5 8.51464C19.5 12.0844 17.2658 16.2499 13.7801 17.7396C12.9675 18.0868 12.0325 18.0868 11.2199 17.7396C7.73416 16.2499 5.5 12.0844 5.5 8.51464ZM12.5 11C13.6046 11 14.5 10.1046 14.5 9C14.5 7.89543 13.6046 7 12.5 7C11.3954 7 10.5 7.89543 10.5 9C10.5 10.1046 11.3954 11 12.5 11Z" fill="white"/>
</svg>
