<svg width="54" height="49" viewBox="0 0 54 49" fill="none" xmlns="http://www.w3.org/2000/svg">
<g clip-path="url(#clip0_45_70)">
<path fill-rule="evenodd" clip-rule="evenodd" d="M25.3564 0.69955C24.5142 0.600293 23.6577 0.549351 22.7894 0.549808C16.6873 0.552922 11.1636 3.08681 7.16592 7.18089C3.16636 11.277 0.694157 16.934 0.697269 23.1809H0.698937C0.698937 23.2524 0.696957 23.1675 0.697636 23.2008L0.697976 23.2349H0.698937V23.5264L0.69939 23.6635H0.698937V48.1565H8.96134V40.8274L9.63914 41.3423C11.5116 42.7648 13.612 43.8918 15.8741 44.6553C18.0567 45.392 20.3894 45.7902 22.8126 45.7889C23.3678 45.7886 23.9182 45.7672 24.4632 45.7257C20.9476 44.5715 17.801 42.574 15.2512 39.9654C11.099 35.7173 8.53079 29.8496 8.53079 23.3694V22.9408H8.54799C8.67167 19.1215 10.3312 15.513 12.8923 12.8391C15.5227 10.0928 19.1082 8.32769 22.9628 8.32572C23.813 8.32529 24.6455 8.40232 25.4538 8.55012C25.9759 8.64561 26.487 8.77012 26.9857 8.92195C27.4129 9.04995 27.8317 9.19821 28.241 9.36555L29.0139 9.65926L28.9508 9.67912C30.4486 10.3922 31.803 11.3676 32.9575 12.5476C35.498 15.1442 37.0704 18.7328 37.0724 22.6978H37.0741L37.0724 22.6979C37.0744 26.6626 35.5055 30.2528 32.9674 32.8521C31.67 34.181 30.1191 35.2509 28.3954 35.9801C29.4549 36.2606 30.5659 36.4101 31.7112 36.4101C34.2064 36.4101 36.7223 35.7038 38.8955 34.4759C41.0422 33.2631 42.8519 31.5433 43.9724 29.4958L44.0861 29.288C44.581 27.482 44.8619 25.5847 44.8999 23.6266H44.8755L44.8752 23.198C44.8725 17.6861 42.9431 12.6356 39.7391 8.71272C36.4831 4.72612 31.9108 1.90464 26.7072 0.947922L25.3564 0.69955Z" fill="url(#paint0_linear_45_70)"/>
<path fill-rule="evenodd" clip-rule="evenodd" d="M30.908 45.9799C31.0024 45.9824 31.097 45.9842 31.1918 45.9854H31.1928C31.2875 45.9866 31.3824 45.9873 31.4775 45.9873H31.4784C31.5561 45.9873 31.6336 45.9868 31.7111 45.986H31.7121C31.7895 45.9852 31.8669 45.984 31.9442 45.9823H31.9451C32.0224 45.9807 32.0996 45.9786 32.1767 45.9762C36.8977 45.8261 41.245 44.1619 44.77 41.4424C48.4149 38.6304 51.1817 34.6906 52.5757 30.1302H44.5867C43.3813 32.2225 41.5078 33.9772 39.3036 35.2226C37.1136 36.4599 34.5943 37.1962 32.0784 37.2624C32.0375 37.2634 31.9966 37.2644 31.9556 37.2651H31.9547C31.9137 37.2658 31.8729 37.2664 31.832 37.2667H31.831C31.7901 37.2671 31.7492 37.2673 31.7083 37.2673H31.7073C31.6485 37.2673 31.5897 37.2669 31.531 37.2662H31.5301C31.4714 37.2654 31.4128 37.2643 31.3543 37.2628C27.7074 37.1707 24.4053 35.656 21.958 33.2405C19.4242 30.7396 17.8074 27.2723 17.6745 23.4186L17.6593 22.9767H17.6602H17.6716L17.6713 22.9408C17.6713 19.754 18.6884 16.8078 20.4091 14.4233C21.9302 12.3154 24.0006 10.6482 26.4035 9.64316C26.0413 9.54316 25.6735 9.45867 25.3008 9.39053C24.6594 9.27327 24.002 9.20336 23.3323 9.18462L23.296 9.18365H23.295L23.2588 9.18276H23.2578L23.2215 9.18199H23.2205L23.1842 9.1813H23.1832L23.1469 9.18073H23.1459L23.1095 9.18027H23.1086L23.0722 9.17993H23.0712L23.0348 9.17967H23.0338L22.9974 9.17953H22.9964L22.9599 9.1795H22.959C22.9028 9.17953 22.8467 9.17999 22.7907 9.18082H22.7898C22.7337 9.18165 22.6778 9.1829 22.6219 9.18453C19.1367 9.28625 15.8986 10.9266 13.496 13.4351C10.9849 16.0568 9.39046 19.6227 9.38254 23.3694L9.38164 23.798H9.38068C9.49104 29.8757 11.9425 35.3668 15.8515 39.366C19.7252 43.3291 25.0312 45.8276 30.908 45.9799ZM46.9925 7.09865C43.1189 3.13562 37.8128 0.637074 31.9361 0.484789C31.8416 0.48236 31.747 0.480503 31.6522 0.479275H31.6513C31.5565 0.478046 31.4616 0.477417 31.3666 0.477417H31.3656L31.3304 0.477446H31.3294L31.2942 0.477531H31.2933L31.2581 0.477674H31.2571L31.222 0.477875H31.221L31.1858 0.478131H31.1849L31.1498 0.478446H31.1488L31.1137 0.478846H31.1127L31.0777 0.479275H31.0767L31.0417 0.47976H31.0407L31.0057 0.480303H31.0048L30.9698 0.480903H30.9688L30.9339 0.481588H30.9329L30.8979 0.482303H30.897L30.8621 0.483074H30.8611L30.8262 0.483903H30.8253L30.7904 0.484817H30.7894L30.7546 0.48576H30.7536L30.7188 0.48676H30.7178L30.6831 0.487817C30.1469 0.504103 29.619 0.539789 29.1001 0.594017L28.9791 0.606989C33.5016 1.90462 37.4593 4.58313 40.3891 8.17033C43.6298 12.1381 45.6132 17.2181 45.7132 22.7694H53.4652C53.3808 16.6508 50.9235 11.1204 46.9925 7.09865Z" fill="url(#paint1_linear_45_70)"/>
</g>
<defs>
<linearGradient id="paint0_linear_45_70" x1="31.743" y1="-2.90322" x2="6.27383" y2="43.3449" gradientUnits="userSpaceOnUse">
<stop stop-color="#9966FF"/>
<stop offset="0.219608" stop-color="#B923AE"/>
<stop offset="0.580392" stop-color="#B923AE"/>
<stop offset="1" stop-color="#380E8C"/>
</linearGradient>
<linearGradient id="paint1_linear_45_70" x1="44.7473" y1="40.0231" x2="25.6618" y2="4.18542" gradientUnits="userSpaceOnUse">
<stop stop-color="#FD8F27"/>
<stop offset="0.172549" stop-color="#8AB984"/>
<stop offset="0.490196" stop-color="#16E4E2"/>
<stop offset="1" stop-color="#0C9CD1"/>
</linearGradient>
<clipPath id="clip0_45_70">
<rect width="54" height="49" fill="white"/>
</clipPath>
</defs>
</svg>
