<svg width="32" height="32" viewBox="0 0 32 32" fill="none" xmlns="http://www.w3.org/2000/svg">
<path fill-rule="evenodd" clip-rule="evenodd" d="M27.6667 9.33331C27.6667 9.8856 27.219 10.3333 26.6667 10.3333L5.33342 10.3333C4.78113 10.3333 4.33342 9.8856 4.33342 9.33331C4.33342 8.78103 4.78113 8.33331 5.33342 8.33331L26.6667 8.33331C27.219 8.33331 27.6667 8.78103 27.6667 9.33331Z" fill="white"/>
<path fill-rule="evenodd" clip-rule="evenodd" d="M27.6667 16C27.6667 16.5523 27.219 17 26.6667 17L5.33342 17C4.78113 17 4.33342 16.5523 4.33342 16C4.33342 15.4477 4.78113 15 5.33342 15L26.6667 15C27.219 15 27.6667 15.4477 27.6667 16Z" fill="white"/>
<path fill-rule="evenodd" clip-rule="evenodd" d="M27.6667 22.6667C27.6667 23.219 27.219 23.6667 26.6667 23.6667L5.33342 23.6667C4.78113 23.6667 4.33342 23.219 4.33342 22.6667C4.33342 22.1144 4.78113 21.6667 5.33342 21.6667L26.6667 21.6667C27.219 21.6667 27.6667 22.1144 27.6667 22.6667Z" fill="white"/>
</svg>
