<svg width="15" height="15" viewBox="0 0 15 15" fill="none" xmlns="http://www.w3.org/2000/svg">
<path d="M8.75 2.5H6.25C3.89298 2.5 2.71447 2.5 1.98223 3.23223C1.45502 3.75945 1.3074 4.51801 1.26607 5.78125H13.7339C13.6926 4.51801 13.545 3.75945 13.0178 3.23223C12.2855 2.5 11.107 2.5 8.75 2.5Z" fill="white"/>
<path d="M6.25 12.5H8.75C11.107 12.5 12.2855 12.5 13.0178 11.7678C13.75 11.0355 13.75 9.85702 13.75 7.5C13.75 7.22379 13.75 6.96377 13.7488 6.71875H1.25118C1.25 6.96377 1.25 7.22379 1.25 7.5C1.25 9.85702 1.25 11.0355 1.98223 11.7678C2.71447 12.5 3.89298 12.5 6.25 12.5Z" fill="white"/>
<path fill-rule="evenodd" clip-rule="evenodd" d="M3.28125 10C3.28125 9.74112 3.49112 9.53125 3.75 9.53125H6.25C6.50888 9.53125 6.71875 9.74112 6.71875 10C6.71875 10.2589 6.50888 10.4688 6.25 10.4688H3.75C3.49112 10.4688 3.28125 10.2589 3.28125 10Z" fill="#0A0A0A"/>
<path fill-rule="evenodd" clip-rule="evenodd" d="M7.34375 10C7.34375 9.74112 7.55362 9.53125 7.8125 9.53125H8.75C9.00888 9.53125 9.21875 9.74112 9.21875 10C9.21875 10.2589 9.00888 10.4688 8.75 10.4688H7.8125C7.55362 10.4688 7.34375 10.2589 7.34375 10Z" fill="#0A0A0A"/>
</svg>
