<svg width="40" height="40" viewBox="0 0 40 40" fill="none" xmlns="http://www.w3.org/2000/svg">
<path fill-rule="evenodd" clip-rule="evenodd" d="M13.7502 10.0248C13.7501 10.0166 13.75 10.0083 13.75 10V8.33334C13.75 4.88156 16.5482 2.08334 20 2.08334C23.4518 2.08334 26.25 4.88156 26.25 8.33334V10C26.25 10.0083 26.2499 10.0166 26.2498 10.0248C28.3952 10.0892 29.7079 10.3207 30.7102 11.1525C32.0988 12.3049 32.4646 14.2557 33.1961 18.1571L34.4461 24.8238C35.4748 30.31 35.9891 33.053 34.4896 34.8599C32.99 36.6667 30.1991 36.6667 24.6174 36.6667H15.3826C9.8008 36.6667 7.00992 36.6667 5.51039 34.8599C4.01086 33.053 4.52519 30.31 5.55385 24.8238L6.80385 18.1571C7.53537 14.2557 7.90114 12.3049 9.28976 11.1525C10.292 10.3207 11.6048 10.0892 13.7502 10.0248ZM16.25 8.33334C16.25 6.26228 17.9289 4.58334 20 4.58334C22.0711 4.58334 23.75 6.26228 23.75 8.33334V10C23.75 10 23.75 10 23.75 10C23.6245 9.99997 23.497 10 23.3674 10H16.6326C16.5029 10 16.3754 10 16.25 10.0001C16.25 10 16.25 10.0001 16.25 10.0001V8.33334ZM15 21.9946C15 23.6353 16.9414 25.3689 18.4047 26.4426C19.1043 26.9559 19.4541 27.2126 20 27.2126C20.5458 27.2126 20.8956 26.9559 21.5952 26.4426C23.0586 25.3689 25 23.6353 25 21.9945C25 19.2058 22.2499 18.1647 20 20.3189C17.7501 18.1647 15 19.2058 15 21.9946Z" fill="white"/>
</svg>
