<svg width="20" height="20" viewBox="0 0 20 20" fill="none" xmlns="http://www.w3.org/2000/svg">
<path fill-rule="evenodd" clip-rule="evenodd" d="M8.32914 3.3335H11.6708C14.8213 3.3335 16.3966 3.3335 17.3753 4.30981C18.0492 4.98202 18.2591 5.93632 18.3245 7.49139C18.3374 7.79978 18.3439 7.95398 18.2863 8.05685C18.2288 8.15972 17.9989 8.28811 17.5391 8.54488C17.0284 8.83004 16.6832 9.37489 16.6832 10.0002C16.6832 10.6254 17.0284 11.1703 17.5391 11.4554C17.9989 11.7122 18.2288 11.8406 18.2863 11.9435C18.3439 12.0464 18.3374 12.2005 18.3245 12.5089C18.2591 14.064 18.0492 15.0183 17.3753 15.6905C16.3966 16.6668 14.8213 16.6668 11.6708 16.6668H8.32914C5.17861 16.6668 3.60335 16.6668 2.62461 15.6905C1.95072 15.0183 1.74082 14.064 1.67544 12.5089C1.66247 12.2005 1.65599 12.0464 1.71358 11.9435C1.77117 11.8406 2.00107 11.7122 2.46086 11.4554C2.97151 11.1703 3.31668 10.6254 3.31668 10.0002C3.31668 9.37489 2.97151 8.83004 2.46086 8.54488C2.00106 8.28811 1.77117 8.15972 1.71358 8.05685C1.65599 7.95398 1.66247 7.79978 1.67544 7.49139C1.74082 5.93632 1.95072 4.98202 2.62461 4.30981C3.60335 3.3335 5.17861 3.3335 8.32914 3.3335ZM12.9565 7.05822C13.2012 7.3023 13.2012 7.69803 12.9565 7.9421L7.94403 12.9421C7.69935 13.1862 7.30263 13.1862 7.05795 12.9421C6.81326 12.698 6.81326 12.3023 7.05795 12.0582L12.0704 7.05822C12.3151 6.81414 12.7118 6.81414 12.9565 7.05822ZM12.0957 12.9168C12.5571 12.9168 12.9312 12.5437 12.9312 12.0835C12.9312 11.6233 12.5571 11.2502 12.0957 11.2502C11.6344 11.2502 11.2603 11.6233 11.2603 12.0835C11.2603 12.5437 11.6344 12.9168 12.0957 12.9168ZM7.9187 8.75016C8.38008 8.75016 8.7541 8.37707 8.7541 7.91683C8.7541 7.45659 8.38008 7.0835 7.9187 7.0835C7.45731 7.0835 7.08329 7.45659 7.08329 7.91683C7.08329 8.37707 7.45731 8.75016 7.9187 8.75016Z" fill="white"/>
</svg>
