<svg width="40" height="40" viewBox="0 0 40 40" fill="none" xmlns="http://www.w3.org/2000/svg">
<path fill-rule="evenodd" clip-rule="evenodd" d="M23.3333 36.6666H16.6666C10.3812 36.6666 7.23849 36.6666 5.28587 34.714C3.33325 32.7614 3.33325 29.6187 3.33325 23.3333V16.6666C3.33325 10.3813 3.33325 7.23856 5.28587 5.28593C7.23849 3.33331 10.3977 3.33331 16.7162 3.33331C17.7262 3.33331 18.5356 3.33331 19.2166 3.36108C19.1942 3.4943 19.1824 3.63019 19.182 3.76759L19.1666 8.49159C19.1664 10.3201 19.1663 11.936 19.3414 13.2386C19.5312 14.6504 19.9671 16.0621 21.1192 17.2142C22.2713 18.3663 23.683 18.8022 25.0948 18.992C26.3974 19.1671 28.0133 19.167 29.8418 19.1668L29.9999 19.1668H36.5956C36.6666 20.0573 36.6666 21.1501 36.6666 22.6048V23.3333C36.6666 29.6187 36.6666 32.7614 34.714 34.714C32.7613 36.6666 29.6186 36.6666 23.3333 36.6666ZM8.74992 24.1666C8.74992 23.4763 9.30956 22.9166 9.99992 22.9166H23.3333C24.0236 22.9166 24.5833 23.4763 24.5833 24.1666C24.5833 24.857 24.0236 25.4166 23.3333 25.4166H9.99992C9.30956 25.4166 8.74992 24.857 8.74992 24.1666ZM8.74992 30C8.74992 29.3096 9.30956 28.75 9.99992 28.75H19.1666C19.8569 28.75 20.4166 29.3096 20.4166 30C20.4166 30.6903 19.8569 31.25 19.1666 31.25H9.99992C9.30956 31.25 8.74992 30.6903 8.74992 30Z" fill="white"/>
<path d="M32.2528 12.6944L25.6548 6.75624C23.7751 5.06445 22.8352 4.21855 21.682 3.77602L21.6666 8.33349C21.6666 12.2619 21.6666 14.226 22.887 15.4464C24.1074 16.6668 26.0715 16.6668 29.9999 16.6668H35.9667C35.3625 15.4931 34.2805 14.5194 32.2528 12.6944Z" fill="white"/>
</svg>
