<svg width="140" height="76" viewBox="0 0 140 76" fill="none" xmlns="http://www.w3.org/2000/svg">
<g filter="url(#filter0_d_44_85)">
<circle cx="38" cy="28" r="20" fill="#9966FF"/>
<circle cx="38" cy="28" r="21.25" stroke="white" stroke-width="2.5"/>
</g>
<path fill-rule="evenodd" clip-rule="evenodd" d="M28.8333 34.8667C28.8333 34.5169 29.1196 34.2333 29.4728 34.2333H46.5271C46.8803 34.2333 47.1666 34.5169 47.1666 34.8667C47.1666 35.2164 46.8803 35.5 46.5271 35.5H29.4728C29.1196 35.5 28.8333 35.2164 28.8333 34.8667Z" fill="white"/>
<path fill-rule="evenodd" clip-rule="evenodd" d="M31.0748 21.242C30.3256 21.984 30.3256 23.1782 30.3256 25.5667V29.7889C30.3256 31.3812 30.3256 32.1773 30.8251 32.672C31.3246 33.1667 32.1285 33.1667 33.7364 33.1667H42.2635C43.8714 33.1667 44.6754 33.1667 45.1749 32.672C45.6744 32.1773 45.6744 31.3812 45.6744 29.7889V25.5667C45.6744 23.1782 45.6744 21.984 44.9251 21.242C44.1759 20.5 42.97 20.5 40.5581 20.5H35.4418C33.03 20.5 31.8241 20.5 31.0748 21.242ZM34.8023 30.6333C34.8023 30.2836 35.0886 30 35.4418 30H40.5581C40.9113 30 41.1977 30.2836 41.1977 30.6333C41.1977 30.9831 40.9113 31.2667 40.5581 31.2667H35.4418C35.0886 31.2667 34.8023 30.9831 34.8023 30.6333Z" fill="white"/>
<g filter="url(#filter1_d_44_85)">
<circle cx="70" cy="28" r="20" fill="#FD8F27"/>
<circle cx="70" cy="28" r="21.25" stroke="white" stroke-width="2.5"/>
</g>
<path fill-rule="evenodd" clip-rule="evenodd" d="M70.043 19.6667H69.957C68.5568 19.6667 67.4477 19.6666 66.5798 19.7854C65.6865 19.9076 64.9635 20.165 64.3933 20.7451C63.8231 21.3253 63.5701 22.0609 63.45 22.9697C63.3333 23.8529 63.3333 24.9813 63.3333 26.4059V29.5941C63.3333 31.0187 63.3333 32.1471 63.45 33.0302C63.5701 33.9391 63.8231 34.6747 64.3933 35.2548C64.9635 35.835 65.6865 36.0924 66.5798 36.2146C67.4477 36.3334 68.5568 36.3333 69.957 36.3333H70.043C71.4431 36.3333 72.5522 36.3334 73.4202 36.2146C74.3135 36.0924 75.0365 35.835 75.6067 35.2548C76.1768 34.6747 76.4299 33.9391 76.55 33.0302C76.6667 32.1471 76.6667 31.0188 76.6666 29.5942V26.4059C76.6667 24.9813 76.6667 23.8529 76.55 22.9697C76.4299 22.0609 76.1768 21.3253 75.6067 20.7451C75.0365 20.165 74.3135 19.9076 73.4202 19.7854C72.5522 19.6666 71.4432 19.6667 70.043 19.6667ZM67.1428 33.4264C67.1428 33.1053 67.3987 32.845 67.7143 32.845H72.2857C72.6013 32.845 72.8571 33.1053 72.8571 33.4264C72.8571 33.7475 72.6013 34.0078 72.2857 34.0078H67.7143C67.3987 34.0078 67.1428 33.7475 67.1428 33.4264Z" fill="white"/>
<g filter="url(#filter2_d_44_85)">
<circle cx="102" cy="28" r="20" fill="#16E4E2"/>
<circle cx="102" cy="28" r="21.25" stroke="white" stroke-width="2.5"/>
</g>
<path d="M93.6667 25.2999C93.6667 23.0372 93.6667 21.9059 94.3989 21.2029C95.1312 20.5 96.3097 20.5 98.6667 20.5H105.333C107.69 20.5 108.869 20.5 109.601 21.2029C110.333 21.9059 110.333 23.0372 110.333 25.2999V26.0999C110.333 28.3627 110.333 29.494 109.601 30.197C108.869 30.8999 107.69 30.8999 105.333 30.8999H102.625V32.8674L107.198 34.3306C107.525 34.4354 107.702 34.7752 107.593 35.0896C107.484 35.4039 107.13 35.5738 106.802 35.469L102 33.9323L97.1977 35.469C96.8702 35.5738 96.5162 35.4039 96.4071 35.0896C96.2979 34.7752 96.4749 34.4354 96.8024 34.3306L101.375 32.8674V30.8999H98.6667C96.3097 30.8999 95.1312 30.8999 94.3989 30.197C93.6667 29.494 93.6667 28.3627 93.6667 26.0999V25.2999Z" fill="white"/>
<defs>
<filter id="filter0_d_44_85" x="0.5" y="0.5" width="75" height="75" filterUnits="userSpaceOnUse" color-interpolation-filters="sRGB">
<feFlood flood-opacity="0" result="BackgroundImageFix"/>
<feColorMatrix in="SourceAlpha" type="matrix" values="0 0 0 0 0 0 0 0 0 0 0 0 0 0 0 0 0 0 127 0" result="hardAlpha"/>
<feOffset dy="10"/>
<feGaussianBlur stdDeviation="7.5"/>
<feComposite in2="hardAlpha" operator="out"/>
<feColorMatrix type="matrix" values="0 0 0 0 0.661765 0 0 0 0 0.117647 0 0 0 0 0.843137 0 0 0 0.08 0"/>
<feBlend mode="normal" in2="BackgroundImageFix" result="effect1_dropShadow_44_85"/>
<feBlend mode="normal" in="SourceGraphic" in2="effect1_dropShadow_44_85" result="shape"/>
</filter>
<filter id="filter1_d_44_85" x="32.5" y="0.5" width="75" height="75" filterUnits="userSpaceOnUse" color-interpolation-filters="sRGB">
<feFlood flood-opacity="0" result="BackgroundImageFix"/>
<feColorMatrix in="SourceAlpha" type="matrix" values="0 0 0 0 0 0 0 0 0 0 0 0 0 0 0 0 0 0 127 0" result="hardAlpha"/>
<feOffset dy="10"/>
<feGaussianBlur stdDeviation="7.5"/>
<feComposite in2="hardAlpha" operator="out"/>
<feColorMatrix type="matrix" values="0 0 0 0 0.661765 0 0 0 0 0.117647 0 0 0 0 0.843137 0 0 0 0.08 0"/>
<feBlend mode="normal" in2="BackgroundImageFix" result="effect1_dropShadow_44_85"/>
<feBlend mode="normal" in="SourceGraphic" in2="effect1_dropShadow_44_85" result="shape"/>
</filter>
<filter id="filter2_d_44_85" x="64.5" y="0.5" width="75" height="75" filterUnits="userSpaceOnUse" color-interpolation-filters="sRGB">
<feFlood flood-opacity="0" result="BackgroundImageFix"/>
<feColorMatrix in="SourceAlpha" type="matrix" values="0 0 0 0 0 0 0 0 0 0 0 0 0 0 0 0 0 0 127 0" result="hardAlpha"/>
<feOffset dy="10"/>
<feGaussianBlur stdDeviation="7.5"/>
<feComposite in2="hardAlpha" operator="out"/>
<feColorMatrix type="matrix" values="0 0 0 0 0.661765 0 0 0 0 0.117647 0 0 0 0 0.843137 0 0 0 0.08 0"/>
<feBlend mode="normal" in2="BackgroundImageFix" result="effect1_dropShadow_44_85"/>
<feBlend mode="normal" in="SourceGraphic" in2="effect1_dropShadow_44_85" result="shape"/>
</filter>
</defs>
</svg>
