<svg width="14" height="18" viewBox="0 0 14 18" fill="none" xmlns="http://www.w3.org/2000/svg">
<path fill-rule="evenodd" clip-rule="evenodd" d="M7.04297 0.666664H6.957C5.5568 0.666652 4.44774 0.666643 3.57977 0.785374C2.6865 0.907566 1.96349 1.16502 1.39331 1.74515C0.823127 2.32527 0.570085 3.06089 0.449988 3.96975C0.333292 4.85286 0.333301 5.98125 0.333313 7.40587V10.5941C0.333301 12.0187 0.333292 13.1471 0.449988 14.0302C0.570085 14.9391 0.823127 15.6747 1.39331 16.2548C1.96349 16.835 2.6865 17.0924 3.57977 17.2146C4.44774 17.3334 5.55678 17.3333 6.95697 17.3333H7.04296C8.44314 17.3333 9.55222 17.3334 10.4202 17.2146C11.3135 17.0924 12.0365 16.835 12.6067 16.2548C13.1768 15.6747 13.4299 14.9391 13.55 14.0302C13.6667 13.1471 13.6667 12.0188 13.6666 10.5942V7.40588C13.6667 5.98128 13.6667 4.85285 13.55 3.96975C13.4299 3.06089 13.1768 2.32527 12.6067 1.74515C12.0365 1.16502 11.3135 0.907566 10.4202 0.785374C9.55222 0.666643 8.44317 0.666652 7.04297 0.666664ZM4.14284 14.4264C4.14284 14.1053 4.39867 13.845 4.71427 13.845H9.28569C9.60128 13.845 9.85712 14.1053 9.85712 14.4264C9.85712 14.7475 9.60128 15.0078 9.28569 15.0078H4.71427C4.39867 15.0078 4.14284 14.7475 4.14284 14.4264Z" fill="white"/>
</svg>
