<svg width="18" height="16" viewBox="0 0 18 16" fill="none" xmlns="http://www.w3.org/2000/svg">
<path d="M0.666687 5.29995C0.666687 3.03723 0.666687 1.90587 1.39892 1.20294C2.13115 0.5 3.30966 0.5 5.66669 0.5H12.3334C14.6904 0.5 15.8689 0.5 16.6011 1.20294C17.3334 1.90587 17.3334 3.03723 17.3334 5.29995V6.09994C17.3334 8.36266 17.3334 9.49401 16.6011 10.197C15.8689 10.8999 14.6904 10.8999 12.3334 10.8999H9.62502V12.8674L14.1977 14.3306C14.5251 14.4354 14.7021 14.7752 14.5929 15.0896C14.4838 15.4039 14.1298 15.5738 13.8024 15.469L9.00002 13.9323L4.19766 15.469C3.8702 15.5738 3.51625 15.4039 3.40709 15.0896C3.29794 14.7752 3.47491 14.4354 3.80238 14.3306L8.37502 12.8674V10.8999H5.66669C3.30966 10.8999 2.13115 10.8999 1.39892 10.197C0.666687 9.49401 0.666687 8.36266 0.666687 6.09994V5.29995Z" fill="white"/>
</svg>
