<svg width="34" height="34" viewBox="0 0 34 34" fill="none" xmlns="http://www.w3.org/2000/svg">
<path fill-rule="evenodd" clip-rule="evenodd" d="M33.6666 16.9997C33.6666 26.2044 26.2047 33.6663 17 33.6663C7.79523 33.6663 0.333313 26.2044 0.333313 16.9997C0.333313 7.79493 7.79523 0.333008 17 0.333008C26.2047 0.333008 33.6666 7.79493 33.6666 16.9997ZM17 9.91634C15.9644 9.91634 15.125 10.7558 15.125 11.7913C15.125 12.4817 14.5653 13.0413 13.875 13.0413C13.1846 13.0413 12.625 12.4817 12.625 11.7913C12.625 9.3751 14.5837 7.41634 17 7.41634C19.4162 7.41634 21.375 9.3751 21.375 11.7913C21.375 12.9761 20.9024 14.053 20.1382 14.8396C19.9845 14.9979 19.8378 15.1445 19.6979 15.2843C19.3381 15.6437 19.023 15.9586 18.7465 16.3138C18.3814 16.7829 18.25 17.1276 18.25 17.4163V18.6663C18.25 19.3567 17.6903 19.9163 17 19.9163C16.3096 19.9163 15.75 19.3567 15.75 18.6663V17.4163C15.75 16.3244 16.2583 15.4404 16.7736 14.7784C17.1548 14.2885 17.634 13.8102 18.0229 13.4221C18.1403 13.305 18.2494 13.1962 18.3451 13.0976C18.6743 12.7587 18.875 12.2997 18.875 11.7913C18.875 10.7558 18.0355 9.91634 17 9.91634ZM17 25.333C17.9205 25.333 18.6666 24.5868 18.6666 23.6663C18.6666 22.7459 17.9205 21.9997 17 21.9997C16.0795 21.9997 15.3333 22.7459 15.3333 23.6663C15.3333 24.5868 16.0795 25.333 17 25.333Z" fill="#F28237"/>
</svg>
