<svg width="60" height="60" viewBox="0 0 60 60" fill="none" xmlns="http://www.w3.org/2000/svg">
<path fill-rule="evenodd" clip-rule="evenodd" d="M5 30C5 20.5719 5 15.8579 7.92893 12.9289C10.8579 10 15.5719 10 25 10H35C44.4281 10 49.1421 10 52.0711 12.9289C55 15.8579 55 20.5719 55 30C55 39.4281 55 44.1421 52.0711 47.0711C49.1421 50 44.4281 50 35 50H25C15.5719 50 10.8579 50 7.92893 47.0711C5 44.1421 5 39.4281 5 30ZM15 38.125C13.9645 38.125 13.125 38.9645 13.125 40C13.125 41.0355 13.9645 41.875 15 41.875H25C26.0355 41.875 26.875 41.0355 26.875 40C26.875 38.9645 26.0355 38.125 25 38.125H15ZM19.375 32.5C19.375 31.4645 18.5355 30.625 17.5 30.625H15C13.9645 30.625 13.125 31.4645 13.125 32.5C13.125 33.5355 13.9645 34.375 15 34.375H17.5C18.5355 34.375 19.375 33.5355 19.375 32.5ZM28.75 30.625C29.7855 30.625 30.625 31.4645 30.625 32.5C30.625 33.5355 29.7855 34.375 28.75 34.375H23.75C22.7145 34.375 21.875 33.5355 21.875 32.5C21.875 31.4645 22.7145 30.625 23.75 30.625H28.75ZM46.875 32.5C46.875 31.4645 46.0355 30.625 45 30.625H35C33.9645 30.625 33.125 31.4645 33.125 32.5C33.125 33.5355 33.9645 34.375 35 34.375H45C46.0355 34.375 46.875 33.5355 46.875 32.5ZM31.25 38.125C30.2145 38.125 29.375 38.9645 29.375 40C29.375 41.0355 30.2145 41.875 31.25 41.875H35C36.0355 41.875 36.875 41.0355 36.875 40C36.875 38.9645 36.0355 38.125 35 38.125H31.25ZM39.375 40C39.375 38.9645 40.2145 38.125 41.25 38.125H45C46.0355 38.125 46.875 38.9645 46.875 40C46.875 41.0355 46.0355 41.875 45 41.875H41.25C40.2145 41.875 39.375 41.0355 39.375 40Z" fill="#F28237"/>
</svg>
