<svg width="45" height="45" viewBox="0 0 45 45" fill="none" xmlns="http://www.w3.org/2000/svg">
<path fill-rule="evenodd" clip-rule="evenodd" d="M41.25 22.5C41.25 32.8553 32.8553 41.25 22.5 41.25C19.5006 41.25 16.6657 40.5457 14.1516 39.2935C13.4835 38.9607 12.7199 38.85 11.9988 39.0429L7.82503 40.1597C6.01315 40.6445 4.35554 38.9868 4.84033 37.175L5.9571 33.0012C6.15002 32.2801 6.03926 31.5165 5.70649 30.8484C4.45428 28.3343 3.75 25.4994 3.75 22.5C3.75 12.1447 12.1447 3.75 22.5 3.75C32.8553 3.75 41.25 12.1447 41.25 22.5ZM29.1194 17.7556C29.6685 18.3048 29.6685 19.1952 29.1194 19.7444L21.6194 27.2444C21.0781 27.7856 20.2033 27.7946 19.6511 27.2645L15.9011 23.6645C15.3409 23.1266 15.3227 22.2364 15.8605 21.6761C16.3984 21.1159 17.2886 21.0977 17.8489 21.6355L20.6049 24.2813L27.1306 17.7556C27.6798 17.2065 28.5702 17.2065 29.1194 17.7556Z" fill="#F28237"/>
</svg>
