<svg width="60" height="60" viewBox="0 0 60 60" fill="none" xmlns="http://www.w3.org/2000/svg">
<path fill-rule="evenodd" clip-rule="evenodd" d="M55 30C55 43.8071 43.8071 55 30 55C26.0008 55 22.2209 54.061 18.8688 52.3913C17.978 51.9477 16.9598 51.8 15.9985 52.0572L10.4334 53.5462C8.01754 54.1926 5.80739 51.9825 6.45378 49.5666L7.9428 44.0015C8.20002 43.0402 8.05234 42.022 7.60865 41.1312C5.93904 37.7791 5 33.9992 5 30C5 16.1929 16.1929 5 30 5C43.8071 5 55 16.1929 55 30ZM38.8258 23.6742C39.5581 24.4064 39.5581 25.5936 38.8258 26.3258L28.8258 36.3258C28.1041 37.0475 26.9378 37.0594 26.2015 36.3526L21.2015 31.5526C20.4545 30.8355 20.4303 29.6485 21.1474 28.9015C21.8645 28.1545 23.0515 28.1303 23.7985 28.8474L27.4732 32.3751L36.1742 23.6742C36.9064 22.9419 38.0936 22.9419 38.8258 23.6742Z" fill="white"/>
</svg>
