<svg width="60" height="60" viewBox="0 0 60 60" fill="none" xmlns="http://www.w3.org/2000/svg">
<path d="M35 5H25C15.5719 5 10.8579 5 7.92893 7.92893C5 10.8579 5 15.5719 5 25V27.5C5 28.879 5 30.1236 5.01629 31.25H31.5043C31.7634 29.5519 32.344 27.7816 33.8128 26.3128C35.3579 24.7677 37.2366 24.2055 39.014 23.9665C40.628 23.7495 42.6122 23.7497 44.7763 23.75H45.2237C47.3878 23.7497 49.372 23.7495 50.986 23.9665C52.3287 24.147 53.7292 24.512 55 25.3458V25C55 15.5719 55 10.8579 52.0711 7.92893C49.1421 5 44.4281 5 35 5Z" fill="#F28237"/>
<path d="M7.1967 40.3033C9.3934 42.5 12.9289 42.5 20 42.5H28.125V52.5H20C18.9645 52.5 18.125 53.3395 18.125 54.375C18.125 55.4105 18.9645 56.25 20 56.25H33.8764L33.8128 56.1872C32.2677 54.6421 31.7055 52.7634 31.4665 50.986C31.2495 49.372 31.2497 47.3878 31.25 45.2237V37.2763C31.2498 36.0289 31.2497 34.8414 31.2912 33.75H5.09588C5.27232 36.8948 5.77344 38.88 7.1967 40.3033Z" fill="#F28237"/>
<path fill-rule="evenodd" clip-rule="evenodd" d="M55 37.5V45C55 49.714 55 52.0711 53.5355 53.5355C52.0711 55 49.714 55 45 55C40.286 55 37.9289 55 36.4645 53.5355C35 52.0711 35 49.714 35 45V37.5C35 32.786 35 30.4289 36.4645 28.9645C37.9289 27.5 40.286 27.5 45 27.5C49.714 27.5 52.0711 27.5 53.5355 28.9645C55 30.4289 55 32.786 55 37.5ZM40.625 50C40.625 48.9645 41.4645 48.125 42.5 48.125H47.5C48.5355 48.125 49.375 48.9645 49.375 50C49.375 51.0355 48.5355 51.875 47.5 51.875H42.5C41.4645 51.875 40.625 51.0355 40.625 50Z" fill="#F28237"/>
</svg>
