<svg width="45" height="45" viewBox="0 0 45 45" fill="none" xmlns="http://www.w3.org/2000/svg">
<path fill-rule="evenodd" clip-rule="evenodd" d="M3.75 22.5C3.75 15.4289 3.75 11.8934 5.9467 9.6967C8.1434 7.5 11.6789 7.5 18.75 7.5H26.25C33.3211 7.5 36.8566 7.5 39.0533 9.6967C41.25 11.8934 41.25 15.4289 41.25 22.5C41.25 29.5711 41.25 33.1066 39.0533 35.3033C36.8566 37.5 33.3211 37.5 26.25 37.5H18.75C11.6789 37.5 8.1434 37.5 5.9467 35.3033C3.75 33.1066 3.75 29.5711 3.75 22.5ZM11.25 28.5938C10.4733 28.5938 9.84375 29.2233 9.84375 30C9.84375 30.7767 10.4733 31.4062 11.25 31.4062H18.75C19.5267 31.4062 20.1562 30.7767 20.1562 30C20.1562 29.2233 19.5267 28.5938 18.75 28.5938H11.25ZM14.5312 24.375C14.5312 23.5983 13.9017 22.9688 13.125 22.9688H11.25C10.4733 22.9688 9.84375 23.5983 9.84375 24.375C9.84375 25.1517 10.4733 25.7812 11.25 25.7812H13.125C13.9017 25.7812 14.5312 25.1517 14.5312 24.375ZM21.5625 22.9688C22.3392 22.9688 22.9688 23.5983 22.9688 24.375C22.9688 25.1517 22.3392 25.7812 21.5625 25.7812H17.8125C17.0358 25.7812 16.4062 25.1517 16.4062 24.375C16.4062 23.5983 17.0358 22.9688 17.8125 22.9688H21.5625ZM35.1562 24.375C35.1562 23.5983 34.5267 22.9688 33.75 22.9688H26.25C25.4733 22.9688 24.8438 23.5983 24.8438 24.375C24.8438 25.1517 25.4733 25.7812 26.25 25.7812H33.75C34.5267 25.7812 35.1562 25.1517 35.1562 24.375ZM23.4375 28.5938C22.6608 28.5938 22.0312 29.2233 22.0312 30C22.0312 30.7767 22.6608 31.4062 23.4375 31.4062H26.25C27.0266 31.4062 27.6562 30.7767 27.6562 30C27.6562 29.2233 27.0266 28.5938 26.25 28.5938H23.4375ZM29.5312 30C29.5312 29.2233 30.1608 28.5938 30.9375 28.5938H33.75C34.5266 28.5938 35.1562 29.2233 35.1562 30C35.1562 30.7767 34.5266 31.4062 33.75 31.4062H30.9375C30.1608 31.4062 29.5312 30.7767 29.5312 30Z" fill="white"/>
</svg>
