<svg width="50" height="50" viewBox="0 0 50 50" fill="none" xmlns="http://www.w3.org/2000/svg">
<path fill-rule="evenodd" clip-rule="evenodd" d="M13.0647 4.39906C11.3778 4.62125 10.4846 5.02766 9.84834 5.651C9.2121 6.27434 8.79728 7.14951 8.57049 8.80215C8.33704 10.5034 8.33337 12.7582 8.33337 15.9911V33.8422C9.14311 33.2878 10.0557 32.866 11.0396 32.6077C12.14 32.3188 13.4231 32.3192 15.3034 32.3198L41.6667 32.3199V15.9911C41.6667 12.7582 41.663 10.5034 41.4296 8.80215C41.2028 7.14951 40.788 6.27434 40.1517 5.651C39.5155 5.02766 38.6222 4.62125 36.9354 4.39906C35.199 4.17034 32.8975 4.16675 29.5977 4.16675H20.4023C17.1025 4.16675 14.8011 4.17034 13.0647 4.39906ZM14.0805 13.7388C14.0805 12.8059 14.8524 12.0496 15.8046 12.0496H34.1954C35.1477 12.0496 35.9196 12.8059 35.9196 13.7388C35.9196 14.6717 35.1477 15.428 34.1954 15.428H15.8046C14.8524 15.428 14.0805 14.6717 14.0805 13.7388ZM15.8046 19.9325C14.8524 19.9325 14.0805 20.6888 14.0805 21.6217C14.0805 22.5546 14.8524 23.3109 15.8046 23.3109H27.2989C28.2511 23.3109 29.023 22.5546 29.023 21.6217C29.023 20.6888 28.2511 19.9325 27.2989 19.9325H15.8046Z" fill="white"/>
<path d="M18.1035 35.6983H15.5696C13.3208 35.6983 12.5346 35.7128 11.9321 35.871C10.2785 36.305 8.96022 37.5093 8.39488 39.0746C8.42983 39.8714 8.48461 40.5722 8.57049 41.198C8.79728 42.8507 9.2121 43.7258 9.84834 44.3492C10.4846 44.9725 11.3778 45.3789 13.0647 45.6011C14.8011 45.8298 17.1025 45.8334 20.4023 45.8334H29.5977C32.8975 45.8334 35.199 45.8298 36.9354 45.6011C38.6222 45.3789 39.5155 44.9725 40.1517 44.3492C40.788 43.7258 41.2028 42.8507 41.4296 41.198C41.6201 39.8101 41.6576 38.0537 41.6649 35.6983H27.2989V41.962C27.2989 42.5827 27.2989 42.8931 27.0808 43.0185C26.8628 43.1439 26.5646 43.0051 25.9681 42.7276L23.1124 41.3986C22.9106 41.3047 22.8097 41.2577 22.7012 41.2577C22.5927 41.2577 22.4918 41.3047 22.29 41.3986L19.4343 42.7276C18.8378 43.0051 18.5396 43.1439 18.3215 43.0185C18.1035 42.8931 18.1035 42.5827 18.1035 41.962V35.6983Z" fill="white"/>
</svg>
