<svg width="38" height="42" viewBox="0 0 38 42" fill="none" xmlns="http://www.w3.org/2000/svg">
<path fill-rule="evenodd" clip-rule="evenodd" d="M2.69078 2.60752C0.25 5.0483 0.25 8.97667 0.25 16.8334V25.1667C0.25 33.0235 0.25 36.9519 2.69078 39.3926C5.13155 41.8334 9.05992 41.8334 16.9167 41.8334H21.0833C28.9401 41.8334 32.8684 41.8334 35.3092 39.3926C37.7108 36.991 37.7494 33.1492 37.75 25.5419L31.8786 31.4134C31.3165 31.9758 30.8562 32.4364 30.3364 32.8419C29.7273 33.3169 29.0683 33.7242 28.3711 34.0565C27.7759 34.3402 27.1581 34.5459 26.4037 34.797L21.5877 36.4023C20.0282 36.9222 18.3087 36.5163 17.1463 35.3539C15.9839 34.1914 15.578 32.472 16.0978 30.9125L16.6676 29.2031L17.6574 26.2336L17.7031 26.0966C17.9543 25.3421 18.16 24.7243 18.4436 24.1291C18.7759 23.4318 19.1832 22.7728 19.6583 22.1638C20.0637 21.6439 20.5244 21.1836 21.0868 20.6216L29.4336 12.2748L31.7499 9.95851L32.015 9.69345C33.5054 8.20303 35.459 7.45802 37.4124 7.45842C37.0972 5.31144 36.4878 3.78607 35.3092 2.60752C32.8684 0.166748 28.9401 0.166748 21.0833 0.166748H16.9167C9.05992 0.166748 5.13155 0.166748 2.69078 2.60752ZM9.10417 14.7501C9.10417 13.8871 9.80372 13.1876 10.6667 13.1876H24.2083C25.0713 13.1876 25.7708 13.8871 25.7708 14.7501C25.7708 15.613 25.0713 16.3126 24.2083 16.3126H10.6667C9.80372 16.3126 9.10417 15.613 9.10417 14.7501ZM9.10417 23.0834C9.10417 22.2205 9.80372 21.5209 10.6667 21.5209H15.875C16.7379 21.5209 17.4375 22.2205 17.4375 23.0834C17.4375 23.9464 16.7379 24.6459 15.875 24.6459H10.6667C9.80372 24.6459 9.10417 23.9464 9.10417 23.0834ZM9.10417 31.4167C9.10417 30.5538 9.80372 29.8542 10.6667 29.8542H13.7917C14.6546 29.8542 15.3542 30.5538 15.3542 31.4167C15.3542 32.2797 14.6546 32.9792 13.7917 32.9792H10.6667C9.80372 32.9792 9.10417 32.2797 9.10417 31.4167Z" fill="white"/>
</svg>
