<svg width="50" height="50" viewBox="0 0 50 50" fill="none" xmlns="http://www.w3.org/2000/svg">
<path fill-rule="evenodd" clip-rule="evenodd" d="M25.1083 2.60425H24.8916C23.0198 2.60419 21.4589 2.60414 20.2198 2.77074C18.9119 2.94658 17.7311 3.33339 16.7822 4.28229C15.8333 5.23119 15.4465 6.41202 15.2706 7.71992C15.104 8.95904 15.1041 10.5199 15.1041 12.3917V12.5537C10.8933 12.6914 8.36478 13.1835 6.6074 14.9409C4.16663 17.3816 4.16663 21.31 4.16663 29.1668C4.16663 37.0235 4.16663 40.9519 6.6074 43.3927C9.04818 45.8334 12.9766 45.8334 20.8333 45.8334H29.1666C37.0234 45.8334 40.9517 45.8334 43.3925 43.3927C45.8333 40.9519 45.8333 37.0235 45.8333 29.1668C45.8333 21.31 45.8333 17.3816 43.3925 14.9409C41.6351 13.1835 39.1066 12.6914 34.8958 12.5537V12.3918C34.8959 10.52 34.8959 8.95904 34.7293 7.71992C34.5535 6.41202 34.1667 5.23119 33.2178 4.28229C32.2689 3.33339 31.088 2.94658 29.7801 2.77074C28.541 2.60414 26.9801 2.60419 25.1083 2.60425ZM31.7708 12.504V12.5001C31.7708 10.4917 31.7675 9.14265 31.6322 8.13632C31.5029 7.17494 31.2795 6.76349 31.0081 6.492C30.7366 6.22051 30.3251 5.99712 29.3637 5.86787C28.3574 5.73257 27.0083 5.72926 25 5.72926C22.9916 5.72926 21.6425 5.73257 20.6362 5.86787C19.6748 5.99712 19.2634 6.22051 18.9919 6.492C18.7204 6.76349 18.497 7.17494 18.3677 8.13632C18.2324 9.14265 18.2291 10.4917 18.2291 12.5001V12.504C19.0459 12.5001 19.9126 12.5001 20.8333 12.5001H29.1666C30.0873 12.5001 30.9541 12.5001 31.7708 12.504ZM35.4166 18.7501C35.4166 19.9007 34.4839 20.8334 33.3333 20.8334C32.1827 20.8334 31.25 19.9007 31.25 18.7501C31.25 17.5995 32.1827 16.6668 33.3333 16.6668C34.4839 16.6668 35.4166 17.5995 35.4166 18.7501ZM16.6666 20.8334C17.8172 20.8334 18.75 19.9007 18.75 18.7501C18.75 17.5995 17.8172 16.6668 16.6666 16.6668C15.516 16.6668 14.5833 17.5995 14.5833 18.7501C14.5833 19.9007 15.516 20.8334 16.6666 20.8334Z" fill="white"/>
</svg>
