<svg width="50" height="50" viewBox="0 0 50 50" fill="none" xmlns="http://www.w3.org/2000/svg">
<path fill-rule="evenodd" clip-rule="evenodd" d="M6.25 21.7012C6.25 15.0396 6.25 11.7088 7.03649 10.5882C7.82298 9.46763 10.9548 8.39558 17.2186 6.25149L18.4119 5.843C21.677 4.72533 23.3096 4.1665 25 4.1665C26.6904 4.1665 28.323 4.72534 31.5881 5.843L32.7814 6.25149C39.0452 8.39558 42.177 9.46763 42.9635 10.5882C43.75 11.7088 43.75 15.0396 43.75 21.7012V24.9818C43.75 36.7278 34.9188 42.4279 29.378 44.8483C27.875 45.5049 27.1235 45.8332 25 45.8332C22.8765 45.8332 22.125 45.5049 20.622 44.8483C15.0812 42.4279 6.25 36.7278 6.25 24.9818V21.7012ZM29.1667 18.7498C29.1667 21.051 27.3012 22.9165 25 22.9165C22.6988 22.9165 20.8333 21.051 20.8333 18.7498C20.8333 16.4487 22.6988 14.5832 25 14.5832C27.3012 14.5832 29.1667 16.4487 29.1667 18.7498ZM25 35.4165C33.3333 35.4165 33.3333 33.551 33.3333 31.2498C33.3333 28.9487 29.6024 27.0832 25 27.0832C20.3976 27.0832 16.6667 28.9487 16.6667 31.2498C16.6667 33.551 16.6667 35.4165 25 35.4165Z" fill="white"/>
</svg>
