<svg width="92" height="52" viewBox="0 0 92 52" fill="none" xmlns="http://www.w3.org/2000/svg">
<rect x="1" y="1" width="90.3846" height="50" rx="25" fill="#0A0A0A" stroke="#333333"/>
<rect x="43.5" y="13.3077" width="4.80769" height="4.80769" rx="2.40385" fill="white"/>
<rect x="38.6923" y="21.1202" width="2.60417" height="2.60417" rx="1.30208" fill="white"/>
<path d="M70.2045 19.2251C69.8278 16.3734 68.7062 13.8069 67.0696 11.6797C66.6732 11.1652 67.069 10.4124 67.7142 10.4897C75.1521 11.3867 81.2533 17.4983 81.6308 25.4997C81.9857 33.0525 76.7544 39.9467 69.3826 41.6315C64.2676 42.8007 59.2904 41.3829 55.6529 38.3374C55.1618 37.9254 55.4279 37.1164 56.0658 37.0592C56.2351 37.0447 56.4063 37.0256 56.5772 37.003C65.2492 35.8574 71.3504 27.8989 70.2045 19.2251Z" fill="white"/>
<path fill-rule="evenodd" clip-rule="evenodd" d="M67.7848 9.89977C66.5662 9.75391 65.9128 11.1516 66.599 12.0423C68.1742 14.0898 69.2531 16.5588 69.6156 19.3029C70.7184 27.6514 64.8461 35.3114 56.4994 36.414C56.3363 36.4355 56.1741 36.4536 56.0151 36.4673L56.0139 36.4674L56.0127 36.4675C54.8692 36.57 54.3588 38.0273 55.2711 38.7926L55.2715 38.7929C59.0443 41.9517 64.2098 43.4233 69.5149 42.2107C77.1674 40.4617 82.5926 33.3116 82.2242 25.4718L82.2242 25.4717C81.8326 17.1707 75.5011 10.8304 67.7854 9.89984L67.7848 9.89977ZM81.0373 25.5276C80.6739 17.8259 74.8031 11.9432 67.6434 11.0795L81.0373 25.5276ZM67.6434 11.0795C67.6072 11.0752 67.5874 11.0826 67.5747 11.0897C67.5587 11.0986 67.5398 11.1157 67.5251 11.1432C67.4954 11.1987 67.4973 11.2613 67.5402 11.3171L67.5405 11.3174C69.2383 13.5242 70.4026 16.1881 70.7935 19.1473C71.9823 28.1463 65.6523 36.4034 56.655 37.592C56.477 37.6155 56.2973 37.6356 56.1184 37.651C56.0838 37.6541 56.0623 37.6656 56.0464 37.679C56.0278 37.6947 56.0108 37.7188 56.0009 37.749C55.9911 37.7792 55.9914 37.8063 55.9964 37.8259C56.0005 37.8418 56.0092 37.8608 56.0348 37.8822C59.537 40.8143 64.3256 42.178 69.2502 41.0523C76.3414 39.4316 81.3787 32.7935 81.0373 25.5277" fill="white"/>
<path d="M23.0587 13.1788C23.4414 12.0628 24.9846 12.0089 25.4406 13.0773L25.4806 13.1837L25.4816 13.1866L26.0314 14.839L27.673 14.8761L27.7892 14.8829C28.3556 14.9451 28.7338 15.3594 28.8644 15.7804C28.9943 16.1996 28.9174 16.7353 28.5187 17.1095L28.4347 17.1818L27.09 18.2511L27.5822 19.9611C27.7427 20.5168 27.5195 21.0543 27.1251 21.3546C26.7235 21.6603 26.112 21.7364 25.6085 21.3702L24.2677 20.3966L22.9298 21.3693L22.9308 21.3702C22.4257 21.7383 21.8132 21.6583 21.4132 21.3536C21.0207 21.0545 20.7951 20.5182 20.9562 19.9611L21.4474 18.2521L20.1027 17.1818L20.1007 17.1808C19.6291 16.804 19.5369 16.2243 19.674 15.7814C19.8034 15.3631 20.1801 14.9446 20.7501 14.8829L20.8673 14.8751L22.506 14.839L23.0558 13.1866L23.0587 13.1788Z" fill="white" stroke="white" stroke-width="2"/>
<path d="M37.373 33.8865C37.7285 32.8499 39.1667 32.7986 39.5908 33.7927L39.6279 33.8914L39.6289 33.8943L39.9346 34.8132L40.8359 34.8337H40.8369C41.4259 34.8476 41.8168 35.261 41.9453 35.6755C42.0732 36.0881 41.9852 36.6268 41.5469 36.9753L41.5459 36.9744L40.792 37.575L41.0703 38.5417L41.0938 38.6375C41.1922 39.1169 40.989 39.5721 40.6455 39.8337C40.2719 40.1182 39.6996 40.1905 39.2305 39.8494L38.5 39.3171L37.7695 39.8494L37.7686 39.8484C37.2979 40.1907 36.7262 40.1169 36.3545 39.8337C35.9897 39.5559 35.7804 39.0565 35.9297 38.5408H35.9307L36.207 37.575L35.4521 36.9744L35.4512 36.9734C35.0123 36.6228 34.9282 36.0839 35.0547 35.6755C35.1821 35.2644 35.5712 34.8468 36.1641 34.8337L37.0635 34.8132L37.3701 33.8943L37.373 33.8865Z" fill="white" stroke="white" stroke-width="2"/>
<ellipse cx="16.3847" cy="31.1923" rx="1.53846" ry="1.34615" fill="white"/>
</svg>
