<svg width="91" height="50" viewBox="0 0 91 50" fill="none" xmlns="http://www.w3.org/2000/svg">
<rect width="90.3846" height="50" rx="25" fill="#7FABFF"/>
<rect x="8.84619" y="7.69226" width="34.6154" height="34.6154" rx="17.3077" fill="white"/>
<rect x="65.3846" y="7.69226" width="9.23077" height="9.23077" rx="4.61538" fill="white"/>
<rect x="56.1538" y="22.6923" width="5" height="5" rx="2.5" fill="white"/>
<path d="M31.3811 18.2251C31.0043 15.3734 29.8827 12.8069 28.2461 10.6797C27.8498 10.1652 28.2455 9.41243 28.8907 9.48966C36.3286 10.3867 42.4298 16.4983 42.8073 24.4997C43.1622 32.0525 37.931 38.9467 30.5591 40.6315C25.4441 41.8007 20.4669 40.3829 16.8294 37.3374C16.3383 36.9254 16.6044 36.1164 17.2423 36.0592C17.4116 36.0447 17.5829 36.0256 17.7537 36.003C26.4257 34.8574 32.5269 26.8989 31.3811 18.2251Z" fill="white"/>
<path fill-rule="evenodd" clip-rule="evenodd" d="M28.9613 8.89977C27.7427 8.75391 27.0893 10.1516 27.7755 11.0423C29.3507 13.0898 30.4296 15.5588 30.7921 18.3029C31.8949 26.6514 26.0226 34.3114 17.6759 35.414C17.5128 35.4355 17.3507 35.4536 17.1916 35.4673L17.1904 35.4674L17.1892 35.4675C16.0457 35.57 15.5353 37.0273 16.4476 37.7926L16.4481 37.7929C20.2208 40.9517 25.3863 42.4233 30.6914 41.2107C38.344 39.4617 43.7691 32.3116 43.4007 24.4718L43.4007 24.4717C43.0091 16.1707 36.6776 9.83041 28.9619 8.89984L28.9613 8.89977ZM42.2138 24.5276C41.8504 16.8259 35.9796 10.9432 28.8199 10.0795L42.2138 24.5276ZM28.8199 10.0795C28.7837 10.0752 28.7639 10.0826 28.7512 10.0897C28.7352 10.0986 28.7163 10.1157 28.7016 10.1432C28.6719 10.1987 28.6738 10.2613 28.7168 10.3171L28.717 10.3174C30.4148 12.5242 31.5791 15.1881 31.97 18.1473C33.1588 27.1463 26.8289 35.4034 17.8315 36.592C17.6535 36.6155 17.4738 36.6356 17.2949 36.651C17.2603 36.6541 17.2388 36.6656 17.2229 36.679C17.2044 36.6947 17.1873 36.7188 17.1774 36.749C17.1676 36.7792 17.168 36.8063 17.1729 36.8259C17.177 36.8418 17.1857 36.8608 17.2113 36.8822C20.7135 39.8143 25.5021 41.178 30.4267 40.0523C37.5179 38.4316 42.5552 31.7935 42.2138 24.5277" fill="white"/>
<path d="M20.699 9.88086C21.0863 8.75186 22.6458 8.69799 23.1072 9.77832L23.1492 9.88672V9.88965L23.739 11.6631L25.5046 11.7031L25.6218 11.7109C26.1948 11.7737 26.5775 12.1926 26.7097 12.6191C26.8412 13.0437 26.7634 13.5854 26.3601 13.9639L26.2751 14.0371L24.8318 15.1846L25.3601 17.0186L25.3855 17.123C25.4934 17.6477 25.2714 18.1438 24.8972 18.4287C24.491 18.7378 23.8731 18.8145 23.364 18.4443L21.9226 17.3965L20.4822 18.4443C19.9715 18.816 19.3534 18.7358 18.949 18.4277C18.5515 18.125 18.3227 17.5819 18.4861 17.0176L19.0125 15.1846L17.5701 14.0371L17.5681 14.0361C17.0908 13.6549 16.9975 13.0679 17.1365 12.6191C17.2763 12.1675 17.6999 11.7171 18.3416 11.7031L20.1052 11.6631L20.696 9.88965L20.699 9.88086Z" fill="white" stroke="white" stroke-width="2"/>
<path d="M34.45 30.5789C34.8054 29.5423 36.2436 29.4909 36.6677 30.4851L36.7048 30.5837L36.7058 30.5867L37.0115 31.5056L37.9128 31.5261H37.9138C38.5028 31.54 38.8937 31.9534 39.0222 32.3679C39.1501 32.7805 39.0621 33.3192 38.6238 33.6677L38.6228 33.6667L37.8689 34.2673L38.1472 35.2341L38.1707 35.3298C38.2691 35.8093 38.0659 36.2645 37.7224 36.5261C37.3488 36.8106 36.7765 36.8829 36.3074 36.5417L35.5769 36.0095L34.8464 36.5417L34.8455 36.5408C34.3748 36.883 33.8031 36.8092 33.4314 36.5261C33.0666 36.2482 32.8573 35.7489 33.0066 35.2332H33.0076L33.2839 34.2673L32.5291 33.6667L32.5281 33.6658C32.0892 33.3152 32.0051 32.7763 32.1316 32.3679C32.259 31.9568 32.6481 31.5392 33.241 31.5261L34.1404 31.5056L34.447 30.5867L34.45 30.5789Z" fill="white" stroke="white" stroke-width="2"/>
<circle cx="13.4616" cy="27.6923" r="1.53846" fill="white"/>
</svg>
